<?xml version="1.0" encoding="UTF-8" standalone="no"?>
<!DOCTYPE svg PUBLIC "-//W3C//DTD SVG 1.1//EN"
 "http://www.w3.org/Graphics/SVG/1.1/DTD/svg11.dtd">
<!-- Generated by graphviz version 14.0.2 (20251019.1705)
 -->
<!-- Title: balanced_parens Pages: 1 -->
<svg width="381pt" height="122pt"
 viewBox="0.00 0.00 381.00 122.00" xmlns="http://www.w3.org/2000/svg" xmlns:xlink="http://www.w3.org/1999/xlink">
<g id="graph0" class="graph" transform="scale(1 1) rotate(0) translate(4 117.66)">
<title>balanced_parens</title>
<polygon fill="white" stroke="none" points="-4,4 -4,-117.66 377.08,-117.66 377.08,4 -4,4"/>
<!-- qi -->
<g id="node1" class="node">
<title>qi</title>
<ellipse fill="black" stroke="black" cx="1.8" cy="-24.33" rx="1.8" ry="1.8"/>
</g>
<!-- q0 -->
<g id="node2" class="node">
<title>q0</title>
<ellipse fill="lightgreen" stroke="black" cx="60.93" cy="-24.33" rx="20.33" ry="20.33"/>
<text xml:space="preserve" text-anchor="middle" x="60.93" y="-20.03" font-family="Times,serif" font-size="14.00">q₀</text>
</g>
<!-- qi&#45;&gt;q0 -->
<g id="edge1" class="edge">
<title>qi&#45;&gt;q0</title>
<path fill="none" stroke="black" d="M3.79,-24.33C7,-24.33 17.55,-24.33 28.65,-24.33"/>
<polygon fill="black" stroke="black" points="28.63,-27.83 38.63,-24.33 28.63,-20.83 28.63,-27.83"/>
</g>
<!-- q1 -->
<g id="node3" class="node">
<title>q1</title>
<ellipse fill="lightyellow" stroke="black" cx="204.34" cy="-24.33" rx="20.33" ry="20.33"/>
<text xml:space="preserve" text-anchor="middle" x="204.34" y="-20.03" font-family="Times,serif" font-size="14.00">q₁</text>
</g>
<!-- q0&#45;&gt;q1 -->
<g id="edge2" class="edge">
<title>q0&#45;&gt;q1</title>
<path fill="none" stroke="black" d="M81.59,-24.33C105.13,-24.33 144.81,-24.33 172.45,-24.33"/>
<polygon fill="black" stroke="black" points="172.33,-27.83 182.33,-24.33 172.33,-20.83 172.33,-27.83"/>
<text xml:space="preserve" text-anchor="middle" x="132.63" y="-29.03" font-family="Times,serif" font-size="14.00">(, Z₀ → (Z₀</text>
</g>
<!-- q1&#45;&gt;q1 -->
<g id="edge3" class="edge">
<title>q1&#45;&gt;q1</title>
<path fill="none" stroke="black" d="M197.95,-44.05C197.07,-53.89 199.2,-62.66 204.34,-62.66 207.31,-62.66 209.28,-59.73 210.24,-55.35"/>
<polygon fill="black" stroke="black" points="213.72,-55.7 210.66,-45.56 206.73,-55.4 213.72,-55.7"/>
<text xml:space="preserve" text-anchor="middle" x="204.34" y="-65.86" font-family="Times,serif" font-size="14.00">(, ( → ((</text>
</g>
<!-- q1&#45;&gt;q1 -->
<g id="edge4" class="edge">
<title>q1&#45;&gt;q1</title>
<path fill="none" stroke="black" d="M194.07,-42.21C188.03,-60.41 191.45,-80.66 204.34,-80.66 214.61,-80.66 218.87,-67.8 217.12,-53.37"/>
<polygon fill="black" stroke="black" points="220.55,-52.67 214.94,-43.69 213.72,-54.21 220.55,-52.67"/>
<text xml:space="preserve" text-anchor="middle" x="204.34" y="-83.86" font-family="Times,serif" font-size="14.00">), ( → ε</text>
</g>
<!-- q2 -->
<g id="node4" class="node">
<title>q2</title>
<ellipse fill="lightcoral" stroke="black" cx="348.75" cy="-24.33" rx="20.33" ry="20.33"/>
<ellipse fill="none" stroke="black" cx="348.75" cy="-24.33" rx="24.33" ry="24.33"/>
<text xml:space="preserve" text-anchor="middle" x="348.75" y="-20.03" font-family="Times,serif" font-size="14.00">q₂</text>
</g>
<!-- q1&#45;&gt;q2 -->
<g id="edge5" class="edge">
<title>q1&#45;&gt;q2</title>
<path fill="none" stroke="black" d="M225.14,-24.33C247.77,-24.33 285.25,-24.33 312.82,-24.33"/>
<polygon fill="black" stroke="black" points="312.82,-27.83 322.82,-24.33 312.82,-20.83 312.82,-27.83"/>
<text xml:space="preserve" text-anchor="middle" x="274.54" y="-29.03" font-family="Times,serif" font-size="14.00">ε, Z₀ → Z₀</text>
</g>
</g>
</svg>
