<?xml version="1.0" encoding="UTF-8" standalone="no"?>
<!DOCTYPE svg PUBLIC "-//W3C//DTD SVG 1.1//EN"
 "http://www.w3.org/Graphics/SVG/1.1/DTD/svg11.dtd">
<!-- Generated by graphviz version 14.0.2 (20251019.1705)
 -->
<!-- Title: stack_ops Pages: 1 -->
<svg width="560pt" height="84pt"
 viewBox="0.00 0.00 560.00 84.00" xmlns="http://www.w3.org/2000/svg" xmlns:xlink="http://www.w3.org/1999/xlink">
<g id="graph0" class="graph" transform="scale(1 1) rotate(0) translate(4 80)">
<title>stack_ops</title>
<polygon fill="white" stroke="none" points="-4,4 -4,-80 556.25,-80 556.25,4 -4,4"/>
<!-- stack1 -->
<g id="node1" class="node">
<title>stack1</title>
<polygon fill="lightyellow" stroke="black" points="0,-20 0,-56 71.75,-56 71.75,-20 0,-20"/>
<text xml:space="preserve" text-anchor="middle" x="20.75" y="-32.95" font-family="Times,serif" font-size="14.00">Start</text>
<polyline fill="none" stroke="black" points="41.5,-20 41.5,-56"/>
<text xml:space="preserve" text-anchor="middle" x="56.62" y="-33.7" font-family="Times,serif" font-size="14.00">Z₀</text>
</g>
<!-- stack2 -->
<g id="node2" class="node">
<title>stack2</title>
<polygon fill="lightyellow" stroke="black" points="107.75,-12.75 107.75,-63.25 194.5,-63.25 194.5,-12.75 107.75,-12.75"/>
<text xml:space="preserve" text-anchor="middle" x="136" y="-32.95" font-family="Times,serif" font-size="14.00">Push &#39;a&#39;</text>
<polyline fill="none" stroke="black" points="164.25,-12.75 164.25,-63.25"/>
<text xml:space="preserve" text-anchor="middle" x="179.38" y="-45.95" font-family="Times,serif" font-size="14.00">a</text>
<polyline fill="none" stroke="black" points="164.25,-38.75 194.5,-38.75"/>
<text xml:space="preserve" text-anchor="middle" x="179.38" y="-21.45" font-family="Times,serif" font-size="14.00">Z₀</text>
</g>
<!-- stack1&#45;&gt;stack2 -->
<g id="edge1" class="edge">
<title>stack1&#45;&gt;stack2</title>
<path fill="none" stroke="black" d="M72.09,-38C79.68,-38 87.87,-38 96,-38"/>
<polygon fill="black" stroke="black" points="95.85,-41.5 105.85,-38 95.85,-34.5 95.85,-41.5"/>
</g>
<!-- stack3 -->
<g id="node3" class="node">
<title>stack3</title>
<polygon fill="lightyellow" stroke="black" points="230.5,-0.5 230.5,-75.5 317.25,-75.5 317.25,-0.5 230.5,-0.5"/>
<text xml:space="preserve" text-anchor="middle" x="258.75" y="-32.95" font-family="Times,serif" font-size="14.00">Push &#39;a&#39;</text>
<polyline fill="none" stroke="black" points="287,-0.5 287,-75.5"/>
<text xml:space="preserve" text-anchor="middle" x="302.12" y="-58.2" font-family="Times,serif" font-size="14.00">a</text>
<polyline fill="none" stroke="black" points="287,-51 317.25,-51"/>
<text xml:space="preserve" text-anchor="middle" x="302.12" y="-33.7" font-family="Times,serif" font-size="14.00">a</text>
<polyline fill="none" stroke="black" points="287,-26.5 317.25,-26.5"/>
<text xml:space="preserve" text-anchor="middle" x="302.12" y="-9.2" font-family="Times,serif" font-size="14.00">Z₀</text>
</g>
<!-- stack2&#45;&gt;stack3 -->
<g id="edge2" class="edge">
<title>stack2&#45;&gt;stack3</title>
<path fill="none" stroke="black" d="M194.7,-38C202.54,-38 210.83,-38 218.96,-38"/>
<polygon fill="black" stroke="black" points="218.77,-41.5 228.77,-38 218.77,-34.5 218.77,-41.5"/>
</g>
<!-- stack4 -->
<g id="node4" class="node">
<title>stack4</title>
<polygon fill="lightyellow" stroke="black" points="353.25,-12.75 353.25,-63.25 434.75,-63.25 434.75,-12.75 353.25,-12.75"/>
<text xml:space="preserve" text-anchor="middle" x="378.88" y="-32.95" font-family="Times,serif" font-size="14.00">Pop &#39;a&#39;</text>
<polyline fill="none" stroke="black" points="404.5,-12.75 404.5,-63.25"/>
<text xml:space="preserve" text-anchor="middle" x="419.62" y="-45.95" font-family="Times,serif" font-size="14.00">a</text>
<polyline fill="none" stroke="black" points="404.5,-38.75 434.75,-38.75"/>
<text xml:space="preserve" text-anchor="middle" x="419.62" y="-21.45" font-family="Times,serif" font-size="14.00">Z₀</text>
</g>
<!-- stack3&#45;&gt;stack4 -->
<g id="edge3" class="edge">
<title>stack3&#45;&gt;stack4</title>
<path fill="none" stroke="black" d="M317.52,-38C325.25,-38 333.38,-38 341.33,-38"/>
<polygon fill="black" stroke="black" points="341.27,-41.5 351.27,-38 341.27,-34.5 341.27,-41.5"/>
</g>
<!-- stack5 -->
<g id="node5" class="node">
<title>stack5</title>
<polygon fill="lightgreen" stroke="black" points="470.75,-20 470.75,-56 552.25,-56 552.25,-20 470.75,-20"/>
<text xml:space="preserve" text-anchor="middle" x="496.38" y="-32.95" font-family="Times,serif" font-size="14.00">Pop &#39;a&#39;</text>
<polyline fill="none" stroke="black" points="522,-20 522,-56"/>
<text xml:space="preserve" text-anchor="middle" x="537.12" y="-33.7" font-family="Times,serif" font-size="14.00">Z₀</text>
</g>
<!-- stack4&#45;&gt;stack5 -->
<g id="edge4" class="edge">
<title>stack4&#45;&gt;stack5</title>
<path fill="none" stroke="black" d="M435.07,-38C442.87,-38 451.14,-38 459.23,-38"/>
<polygon fill="black" stroke="black" points="458.99,-41.5 468.99,-38 458.99,-34.5 458.99,-41.5"/>
</g>
</g>
</svg>
