<?xml version="1.0" encoding="UTF-8" standalone="no"?>
<!DOCTYPE svg PUBLIC "-//W3C//DTD SVG 1.1//EN"
 "http://www.w3.org/Graphics/SVG/1.1/DTD/svg11.dtd">
<!-- Generated by graphviz version 14.0.2 (20251019.1705)
 -->
<!-- Title: pda_anbn Pages: 1 -->
<svg width="357pt" height="143pt"
 viewBox="0.00 0.00 357.00 143.00" xmlns="http://www.w3.org/2000/svg" xmlns:xlink="http://www.w3.org/1999/xlink">
<g id="graph0" class="graph" transform="scale(1 1) rotate(0) translate(4 138.66)">
<title>pda_anbn</title>
<polygon fill="white" stroke="none" points="-4,4 -4,-138.66 353.08,-138.66 353.08,4 -4,4"/>
<!-- qi -->
<g id="node1" class="node">
<title>qi</title>
<ellipse fill="black" stroke="black" cx="1.8" cy="-24.33" rx="1.8" ry="1.8"/>
</g>
<!-- q0 -->
<g id="node2" class="node">
<title>q0</title>
<g id="a_node2"><a xlink:title="START">
<ellipse fill="lightgreen" stroke="black" cx="60.93" cy="-24.33" rx="20.33" ry="20.33"/>
<text xml:space="preserve" text-anchor="middle" x="60.93" y="-20.03" font-family="Times,serif" font-size="14.00">q₀</text>
</a>
</g>
</g>
<!-- qi&#45;&gt;q0 -->
<g id="edge1" class="edge">
<title>qi&#45;&gt;q0</title>
<path fill="none" stroke="black" d="M3.79,-24.33C7,-24.33 17.55,-24.33 28.65,-24.33"/>
<polygon fill="black" stroke="black" points="28.63,-27.83 38.63,-24.33 28.63,-20.83 28.63,-27.83"/>
</g>
<!-- q1 -->
<g id="node3" class="node">
<title>q1</title>
<g id="a_node3"><a xlink:title="READING">
<ellipse fill="lightyellow" stroke="black" cx="193.84" cy="-24.33" rx="20.33" ry="20.33"/>
<text xml:space="preserve" text-anchor="middle" x="193.84" y="-20.03" font-family="Times,serif" font-size="14.00">q₁</text>
</a>
</g>
</g>
<!-- q0&#45;&gt;q1 -->
<g id="edge2" class="edge">
<title>q0&#45;&gt;q1</title>
<path fill="none" stroke="black" d="M81.53,-24.33C102.74,-24.33 136.85,-24.33 161.73,-24.33"/>
<polygon fill="black" stroke="black" points="161.59,-27.83 171.59,-24.33 161.59,-20.83 161.59,-27.83"/>
<text xml:space="preserve" text-anchor="middle" x="127.38" y="-41.63" font-family="Times,serif" font-size="11.00">a, Z₀ → aZ₀</text>
<text xml:space="preserve" text-anchor="middle" x="127.38" y="-27.38" font-family="Times,serif" font-size="11.00">(First &#39;a&#39;)</text>
</g>
<!-- q1&#45;&gt;q1 -->
<g id="edge3" class="edge">
<title>q1&#45;&gt;q1</title>
<path fill="none" stroke="black" d="M188.06,-44.05C187.27,-53.89 189.19,-62.66 193.84,-62.66 196.52,-62.66 198.3,-59.73 199.17,-55.35"/>
<polygon fill="black" stroke="black" points="202.66,-55.69 199.55,-45.56 195.66,-55.42 202.66,-55.69"/>
<text xml:space="preserve" text-anchor="middle" x="193.84" y="-79.21" font-family="Times,serif" font-size="11.00">a, a → aa</text>
<text xml:space="preserve" text-anchor="middle" x="193.84" y="-65.71" font-family="Times,serif" font-size="11.00">(Push more)</text>
</g>
<!-- q1&#45;&gt;q1 -->
<g id="edge4" class="edge">
<title>q1&#45;&gt;q1</title>
<path fill="none" stroke="black" stroke-dasharray="5,2" d="M184.82,-42.79C179,-63.74 182,-89.66 193.84,-89.66 203.64,-89.66 207.38,-71.89 205.07,-53.88"/>
<polygon fill="black" stroke="black" points="208.55,-53.39 203.15,-44.27 201.68,-54.76 208.55,-53.39"/>
<text xml:space="preserve" text-anchor="middle" x="193.84" y="-106.21" font-family="Times,serif" font-size="11.00">b, a → ε</text>
<text xml:space="preserve" text-anchor="middle" x="193.84" y="-92.71" font-family="Times,serif" font-size="11.00">(Pop for &#39;b&#39;)</text>
</g>
<!-- q2 -->
<g id="node4" class="node">
<title>q2</title>
<g id="a_node4"><a xlink:title="ACCEPT">
<ellipse fill="lightcoral" stroke="black" cx="324.75" cy="-24.33" rx="20.33" ry="20.33"/>
<ellipse fill="none" stroke="black" cx="324.75" cy="-24.33" rx="24.33" ry="24.33"/>
<text xml:space="preserve" text-anchor="middle" x="324.75" y="-20.03" font-family="Times,serif" font-size="14.00">q₂</text>
</a>
</g>
</g>
<!-- q1&#45;&gt;q2 -->
<g id="edge5" class="edge">
<title>q1&#45;&gt;q2</title>
<path fill="none" stroke="green" d="M214.42,-24.33C234.06,-24.33 264.74,-24.33 288.61,-24.33"/>
<polygon fill="green" stroke="green" points="288.52,-27.83 298.52,-24.33 288.52,-20.83 288.52,-27.83"/>
<text xml:space="preserve" text-anchor="middle" x="257.29" y="-41.63" font-family="Times,serif" font-size="11.00">ε, Z₀ → Z₀</text>
<text xml:space="preserve" text-anchor="middle" x="257.29" y="-27.38" font-family="Times,serif" font-size="11.00">(Accept)</text>
</g>
</g>
</svg>
