<?xml version="1.0" encoding="UTF-8" standalone="no"?>
<!DOCTYPE svg PUBLIC "-//W3C//DTD SVG 1.1//EN"
 "http://www.w3.org/Graphics/SVG/1.1/DTD/svg11.dtd">
<!-- Generated by graphviz version 14.0.2 (20251019.1705)
 -->
<!-- Title: capability Pages: 1 -->
<svg width="252pt" height="108pt"
 viewBox="0.00 0.00 252.00 108.00" xmlns="http://www.w3.org/2000/svg" xmlns:xlink="http://www.w3.org/1999/xlink">
<g id="graph0" class="graph" transform="scale(1 1) rotate(0) translate(4 104)">
<title>capability</title>
<polygon fill="white" stroke="none" points="-4,4 -4,-104 247.5,-104 247.5,4 -4,4"/>
<!-- task -->
<g id="node1" class="node">
<title>task</title>
<path fill="lightcyan" stroke="black" d="M72.25,-78.25C72.25,-78.25 12,-78.25 12,-78.25 6,-78.25 0,-72.25 0,-66.25 0,-66.25 0,-32.75 0,-32.75 0,-26.75 6,-20.75 12,-20.75 12,-20.75 72.25,-20.75 72.25,-20.75 78.25,-20.75 84.25,-26.75 84.25,-32.75 84.25,-32.75 84.25,-66.25 84.25,-66.25 84.25,-72.25 78.25,-78.25 72.25,-78.25"/>
<text xml:space="preserve" text-anchor="middle" x="42.12" y="-60.95" font-family="Times,serif" font-size="14.00">Task: Check</text>
<text xml:space="preserve" text-anchor="middle" x="42.12" y="-44.45" font-family="Times,serif" font-size="14.00">Balanced</text>
<text xml:space="preserve" text-anchor="middle" x="42.12" y="-27.95" font-family="Times,serif" font-size="14.00">Parentheses</text>
</g>
<!-- fa -->
<g id="node2" class="node">
<title>fa</title>
<path fill="lightcoral" stroke="black" d="M231.5,-100C231.5,-100 178,-100 178,-100 172,-100 166,-94 166,-88 166,-88 166,-71 166,-71 166,-65 172,-59 178,-59 178,-59 231.5,-59 231.5,-59 237.5,-59 243.5,-65 243.5,-71 243.5,-71 243.5,-88 243.5,-88 243.5,-94 237.5,-100 231.5,-100"/>
<text xml:space="preserve" text-anchor="middle" x="204.75" y="-82.7" font-family="Times,serif" font-size="14.00">Finite</text>
<text xml:space="preserve" text-anchor="middle" x="204.75" y="-66.2" font-family="Times,serif" font-size="14.00">Automaton</text>
</g>
<!-- task&#45;&gt;fa -->
<g id="edge1" class="edge">
<title>task&#45;&gt;fa</title>
<path fill="none" stroke="black" d="M84.49,-57.23C105.78,-61.2 131.89,-66.08 154.25,-70.26"/>
<polygon fill="black" stroke="black" points="153.59,-73.69 164.07,-72.09 154.88,-66.81 153.59,-73.69"/>
<text xml:space="preserve" text-anchor="middle" x="125.12" y="-72.19" font-family="Times,serif" font-size="10.00">✗ FAIL</text>
</g>
<!-- pda -->
<g id="node3" class="node">
<title>pda</title>
<path fill="lightgreen" stroke="black" d="M231.5,-41C231.5,-41 178,-41 178,-41 172,-41 166,-35 166,-29 166,-29 166,-12 166,-12 166,-6 172,0 178,0 178,0 231.5,0 231.5,0 237.5,0 243.5,-6 243.5,-12 243.5,-12 243.5,-29 243.5,-29 243.5,-35 237.5,-41 231.5,-41"/>
<text xml:space="preserve" text-anchor="middle" x="204.75" y="-23.7" font-family="Times,serif" font-size="14.00">Pushdown</text>
<text xml:space="preserve" text-anchor="middle" x="204.75" y="-7.2" font-family="Times,serif" font-size="14.00">Automaton</text>
</g>
<!-- task&#45;&gt;pda -->
<g id="edge2" class="edge">
<title>task&#45;&gt;pda</title>
<path fill="none" stroke="black" d="M84.49,-42.03C105.78,-38.19 131.89,-33.47 154.25,-29.44"/>
<polygon fill="black" stroke="black" points="154.85,-32.89 164.07,-27.66 153.6,-26 154.85,-32.89"/>
<text xml:space="preserve" text-anchor="middle" x="125.12" y="-40.95" font-family="Times,serif" font-size="10.00">✓ WORKS</text>
</g>
</g>
</svg>
