<?xml version="1.0" encoding="UTF-8" standalone="no"?>
<!DOCTYPE svg PUBLIC "-//W3C//DTD SVG 1.1//EN"
 "http://www.w3.org/Graphics/SVG/1.1/DTD/svg11.dtd">
<!-- Generated by graphviz version 14.0.2 (20251019.1705)
 -->
<!-- Title: cfg_pda_equiv Pages: 1 -->
<svg width="354pt" height="70pt"
 viewBox="0.00 0.00 354.00 70.00" xmlns="http://www.w3.org/2000/svg" xmlns:xlink="http://www.w3.org/1999/xlink">
<g id="graph0" class="graph" transform="scale(1 1) rotate(0) translate(4 65.75)">
<title>cfg_pda_equiv</title>
<polygon fill="white" stroke="none" points="-4,4 -4,-65.75 350.25,-65.75 350.25,4 -4,4"/>
<!-- CFG -->
<g id="node1" class="node">
<title>CFG</title>
<path fill="lightblue" stroke="black" d="M112,-57.5C112,-57.5 12,-57.5 12,-57.5 6,-57.5 0,-51.5 0,-45.5 0,-45.5 0,-12 0,-12 0,-6 6,0 12,0 12,0 112,0 112,0 118,0 124,-6 124,-12 124,-12 124,-45.5 124,-45.5 124,-51.5 118,-57.5 112,-57.5"/>
<text xml:space="preserve" text-anchor="middle" x="62" y="-40.2" font-family="Times,serif" font-size="14.00">Context&#45;Free</text>
<text xml:space="preserve" text-anchor="middle" x="62" y="-23.7" font-family="Times,serif" font-size="14.00">Grammar</text>
<text xml:space="preserve" text-anchor="middle" x="62" y="-7.2" font-family="Times,serif" font-size="14.00">(Rules for building)</text>
</g>
<!-- PDA -->
<g id="node2" class="node">
<title>PDA</title>
<path fill="lightgreen" stroke="black" d="M334.25,-57.5C334.25,-57.5 230.5,-57.5 230.5,-57.5 224.5,-57.5 218.5,-51.5 218.5,-45.5 218.5,-45.5 218.5,-12 218.5,-12 218.5,-6 224.5,0 230.5,0 230.5,0 334.25,0 334.25,0 340.25,0 346.25,-6 346.25,-12 346.25,-12 346.25,-45.5 346.25,-45.5 346.25,-51.5 340.25,-57.5 334.25,-57.5"/>
<text xml:space="preserve" text-anchor="middle" x="282.38" y="-40.2" font-family="Times,serif" font-size="14.00">Pushdown</text>
<text xml:space="preserve" text-anchor="middle" x="282.38" y="-23.7" font-family="Times,serif" font-size="14.00">Automaton</text>
<text xml:space="preserve" text-anchor="middle" x="282.38" y="-7.2" font-family="Times,serif" font-size="14.00">(Rules for checking)</text>
</g>
<!-- CFG&#45;&gt;PDA -->
<g id="edge1" class="edge">
<title>CFG&#45;&gt;PDA</title>
<path fill="none" stroke="red" stroke-width="2" d="M135.63,-28.75C158.48,-28.75 183.73,-28.75 206.72,-28.75"/>
<polygon fill="red" stroke="red" stroke-width="2" points="137.44,-25.25 127.44,-28.75 137.44,-32.25 137.44,-25.25"/>
<polygon fill="red" stroke="red" stroke-width="2" points="205.12,-32.25 215.12,-28.75 205.12,-25.25 205.12,-32.25"/>
<text xml:space="preserve" text-anchor="middle" x="171.25" y="-48.45" font-family="Times,serif" font-size="14.00">Equivalent</text>
<text xml:space="preserve" text-anchor="middle" x="171.25" y="-31.95" font-family="Times,serif" font-size="14.00">Power</text>
</g>
</g>
</svg>
