<?xml version="1.0" encoding="UTF-8" standalone="no"?>
<!DOCTYPE svg PUBLIC "-//W3C//DTD SVG 1.1//EN"
 "http://www.w3.org/Graphics/SVG/1.1/DTD/svg11.dtd">
<!-- Generated by graphviz version 14.0.2 (20251019.1705)
 -->
<!-- Title: cfg_conversion Pages: 1 -->
<svg width="114pt" height="506pt"
 viewBox="0.00 0.00 114.00 506.00" xmlns="http://www.w3.org/2000/svg" xmlns:xlink="http://www.w3.org/1999/xlink">
<g id="graph0" class="graph" transform="scale(1 1) rotate(0) translate(4 502)">
<title>cfg_conversion</title>
<polygon fill="white" stroke="none" points="-4,4 -4,-502 110,-502 110,4 -4,4"/>
<!-- cfg -->
<g id="node1" class="node">
<title>cfg</title>
<path fill="wheat" stroke="black" d="M85.38,-498C85.38,-498 20.63,-498 20.63,-498 14.63,-498 8.62,-492 8.62,-486 8.62,-486 8.62,-469 8.62,-469 8.62,-463 14.62,-457 20.62,-457 20.62,-457 85.38,-457 85.38,-457 91.38,-457 97.38,-463 97.38,-469 97.38,-469 97.38,-486 97.38,-486 97.38,-492 91.38,-498 85.38,-498"/>
<text xml:space="preserve" text-anchor="middle" x="53" y="-480.7" font-family="Times,serif" font-size="14.00">CFG</text>
<text xml:space="preserve" text-anchor="middle" x="53" y="-464.2" font-family="Times,serif" font-size="14.00">S → aSb | ab</text>
</g>
<!-- step1 -->
<g id="node2" class="node">
<title>step1</title>
<path fill="lightblue" stroke="black" d="M73,-421C73,-421 33,-421 33,-421 27,-421 21,-415 21,-409 21,-409 21,-392 21,-392 21,-386 27,-380 33,-380 33,-380 73,-380 73,-380 79,-380 85,-386 85,-392 85,-392 85,-409 85,-409 85,-415 79,-421 73,-421"/>
<text xml:space="preserve" text-anchor="middle" x="53" y="-403.7" font-family="Times,serif" font-size="14.00">Initialize</text>
<text xml:space="preserve" text-anchor="middle" x="53" y="-387.2" font-family="Times,serif" font-size="14.00">Push &#39;S&#39;</text>
</g>
<!-- cfg&#45;&gt;step1 -->
<g id="edge1" class="edge">
<title>cfg&#45;&gt;step1</title>
<path fill="none" stroke="black" d="M53,-456.79C53,-449.45 53,-440.91 53,-432.78"/>
<polygon fill="black" stroke="black" points="56.5,-432.85 53,-422.85 49.5,-432.85 56.5,-432.85"/>
</g>
<!-- step2 -->
<g id="node3" class="node">
<title>step2</title>
<path fill="lightyellow" stroke="black" d="M94,-344C94,-344 12,-344 12,-344 6,-344 0,-338 0,-332 0,-332 0,-315 0,-315 0,-309 6,-303 12,-303 12,-303 94,-303 94,-303 100,-303 106,-309 106,-315 106,-315 106,-332 106,-332 106,-338 100,-344 94,-344"/>
<text xml:space="preserve" text-anchor="middle" x="53" y="-326.7" font-family="Times,serif" font-size="14.00">See rule S→aSb</text>
<text xml:space="preserve" text-anchor="middle" x="53" y="-310.2" font-family="Times,serif" font-size="14.00">Replace</text>
</g>
<!-- step1&#45;&gt;step2 -->
<g id="edge2" class="edge">
<title>step1&#45;&gt;step2</title>
<path fill="none" stroke="black" d="M53,-379.79C53,-372.45 53,-363.91 53,-355.78"/>
<polygon fill="black" stroke="black" points="56.5,-355.85 53,-345.85 49.5,-355.85 56.5,-355.85"/>
</g>
<!-- step3 -->
<g id="node4" class="node">
<title>step3</title>
<path fill="lightcyan" stroke="black" d="M73.75,-267C73.75,-267 32.25,-267 32.25,-267 26.25,-267 20.25,-261 20.25,-255 20.25,-255 20.25,-238 20.25,-238 20.25,-232 26.25,-226 32.25,-226 32.25,-226 73.75,-226 73.75,-226 79.75,-226 85.75,-232 85.75,-238 85.75,-238 85.75,-255 85.75,-255 85.75,-261 79.75,-267 73.75,-267"/>
<text xml:space="preserve" text-anchor="middle" x="53" y="-249.7" font-family="Times,serif" font-size="14.00">Match &#39;a&#39;</text>
<text xml:space="preserve" text-anchor="middle" x="53" y="-233.2" font-family="Times,serif" font-size="14.00">Pop &#39;a&#39;</text>
</g>
<!-- step2&#45;&gt;step3 -->
<g id="edge3" class="edge">
<title>step2&#45;&gt;step3</title>
<path fill="none" stroke="black" d="M53,-302.79C53,-295.45 53,-286.91 53,-278.78"/>
<polygon fill="black" stroke="black" points="56.5,-278.85 53,-268.85 49.5,-278.85 56.5,-278.85"/>
</g>
<!-- step4 -->
<g id="node5" class="node">
<title>step4</title>
<path fill="lightyellow" stroke="black" d="M81.25,-190C81.25,-190 24.75,-190 24.75,-190 18.75,-190 12.75,-184 12.75,-178 12.75,-178 12.75,-161 12.75,-161 12.75,-155 18.75,-149 24.75,-149 24.75,-149 81.25,-149 81.25,-149 87.25,-149 93.25,-155 93.25,-161 93.25,-161 93.25,-178 93.25,-178 93.25,-184 87.25,-190 81.25,-190"/>
<text xml:space="preserve" text-anchor="middle" x="53" y="-172.7" font-family="Times,serif" font-size="14.00">Recursively</text>
<text xml:space="preserve" text-anchor="middle" x="53" y="-156.2" font-family="Times,serif" font-size="14.00">replace &#39;S&#39;</text>
</g>
<!-- step3&#45;&gt;step4 -->
<g id="edge4" class="edge">
<title>step3&#45;&gt;step4</title>
<path fill="none" stroke="black" d="M53,-225.79C53,-218.45 53,-209.91 53,-201.78"/>
<polygon fill="black" stroke="black" points="56.5,-201.85 53,-191.85 49.5,-201.85 56.5,-201.85"/>
</g>
<!-- step5 -->
<g id="node6" class="node">
<title>step5</title>
<path fill="lightcyan" stroke="black" d="M75.62,-113C75.62,-113 30.38,-113 30.38,-113 24.38,-113 18.38,-107 18.38,-101 18.38,-101 18.38,-84 18.38,-84 18.38,-78 24.38,-72 30.38,-72 30.38,-72 75.62,-72 75.62,-72 81.62,-72 87.62,-78 87.62,-84 87.62,-84 87.62,-101 87.62,-101 87.62,-107 81.62,-113 75.62,-113"/>
<text xml:space="preserve" text-anchor="middle" x="53" y="-95.7" font-family="Times,serif" font-size="14.00">Match b&#39;s</text>
<text xml:space="preserve" text-anchor="middle" x="53" y="-79.2" font-family="Times,serif" font-size="14.00">Pop &#39;b&#39;</text>
</g>
<!-- step4&#45;&gt;step5 -->
<g id="edge5" class="edge">
<title>step4&#45;&gt;step5</title>
<path fill="none" stroke="black" d="M53,-148.79C53,-141.45 53,-132.91 53,-124.78"/>
<polygon fill="black" stroke="black" points="56.5,-124.85 53,-114.85 49.5,-124.85 56.5,-124.85"/>
</g>
<!-- pda -->
<g id="node7" class="node">
<title>pda</title>
<path fill="lightgreen" stroke="black" d="M85.75,-36C85.75,-36 20.25,-36 20.25,-36 14.25,-36 8.25,-30 8.25,-24 8.25,-24 8.25,-12 8.25,-12 8.25,-6 14.25,0 20.25,0 20.25,0 85.75,0 85.75,0 91.75,0 97.75,-6 97.75,-12 97.75,-12 97.75,-24 97.75,-24 97.75,-30 91.75,-36 85.75,-36"/>
<text xml:space="preserve" text-anchor="middle" x="53" y="-12.95" font-family="Times,serif" font-size="14.00">PDA Accepts</text>
</g>
<!-- step5&#45;&gt;pda -->
<g id="edge6" class="edge">
<title>step5&#45;&gt;pda</title>
<path fill="none" stroke="black" d="M53,-71.69C53,-64.25 53,-55.64 53,-47.57"/>
<polygon fill="black" stroke="black" points="56.5,-47.83 53,-37.83 49.5,-47.83 56.5,-47.83"/>
</g>
</g>
</svg>
