<?xml version="1.0" encoding="UTF-8" standalone="no"?>
<!DOCTYPE svg PUBLIC "-//W3C//DTD SVG 1.1//EN"
 "http://www.w3.org/Graphics/SVG/1.1/DTD/svg11.dtd">
<!-- Generated by graphviz version 14.0.2 (20251019.1705)
 -->
<!-- Title: a_n_b_2n Pages: 1 -->
<svg width="401pt" height="155pt"
 viewBox="0.00 0.00 401.00 155.00" xmlns="http://www.w3.org/2000/svg" xmlns:xlink="http://www.w3.org/1999/xlink">
<g id="graph0" class="graph" transform="scale(1 1) rotate(0) translate(4 150.66)">
<title>a_n_b_2n</title>
<polygon fill="white" stroke="none" points="-4,4 -4,-150.66 397.33,-150.66 397.33,4 -4,4"/>
<!-- qi -->
<g id="node1" class="node">
<title>qi</title>
<ellipse fill="black" stroke="black" cx="1.8" cy="-24.33" rx="1.8" ry="1.8"/>
</g>
<!-- q0 -->
<g id="node2" class="node">
<title>q0</title>
<ellipse fill="lightgreen" stroke="black" cx="60.93" cy="-24.33" rx="20.33" ry="20.33"/>
<text xml:space="preserve" text-anchor="middle" x="60.93" y="-20.03" font-family="Times,serif" font-size="14.00">q₀</text>
</g>
<!-- qi&#45;&gt;q0 -->
<g id="edge1" class="edge">
<title>qi&#45;&gt;q0</title>
<path fill="none" stroke="black" d="M3.79,-24.33C7,-24.33 17.55,-24.33 28.65,-24.33"/>
<polygon fill="black" stroke="black" points="28.63,-27.83 38.63,-24.33 28.63,-20.83 28.63,-27.83"/>
</g>
<!-- q1 -->
<g id="node3" class="node">
<title>q1</title>
<ellipse fill="lightyellow" stroke="black" cx="224.59" cy="-24.33" rx="20.33" ry="20.33"/>
<text xml:space="preserve" text-anchor="middle" x="224.59" y="-20.03" font-family="Times,serif" font-size="14.00">q₁</text>
</g>
<!-- q0&#45;&gt;q1 -->
<g id="edge2" class="edge">
<title>q0&#45;&gt;q1</title>
<path fill="none" stroke="black" d="M81.75,-24.33C109.54,-24.33 160.31,-24.33 192.97,-24.33"/>
<polygon fill="black" stroke="black" points="192.59,-27.83 202.59,-24.33 192.59,-20.83 192.59,-27.83"/>
<text xml:space="preserve" text-anchor="middle" x="142.76" y="-45.53" font-family="Times,serif" font-size="14.00">a, Z₀ → aaZ₀</text>
<text xml:space="preserve" text-anchor="middle" x="142.76" y="-27.53" font-family="Times,serif" font-size="14.00">(Push TWO a&#39;s)</text>
</g>
<!-- q1&#45;&gt;q1 -->
<g id="edge3" class="edge">
<title>q1&#45;&gt;q1</title>
<path fill="none" stroke="black" d="M218.2,-44.05C217.32,-53.89 219.45,-62.66 224.59,-62.66 227.56,-62.66 229.53,-59.73 230.49,-55.35"/>
<polygon fill="black" stroke="black" points="233.97,-55.7 230.91,-45.56 226.98,-55.4 233.97,-55.7"/>
<text xml:space="preserve" text-anchor="middle" x="224.59" y="-82.36" font-family="Times,serif" font-size="14.00">a, a → aaa</text>
<text xml:space="preserve" text-anchor="middle" x="224.59" y="-65.86" font-family="Times,serif" font-size="14.00">(Push two more)</text>
</g>
<!-- q1&#45;&gt;q1 -->
<g id="edge4" class="edge">
<title>q1&#45;&gt;q1</title>
<path fill="none" stroke="black" d="M214.92,-42.69C208.07,-65.48 211.29,-95.66 224.59,-95.66 235.81,-95.66 239.86,-74.17 236.73,-53.77"/>
<polygon fill="black" stroke="black" points="240.18,-53.16 234.58,-44.17 233.35,-54.69 240.18,-53.16"/>
<text xml:space="preserve" text-anchor="middle" x="224.59" y="-115.36" font-family="Times,serif" font-size="14.00">b, a → ε</text>
<text xml:space="preserve" text-anchor="middle" x="224.59" y="-98.86" font-family="Times,serif" font-size="14.00">(Pop one)</text>
</g>
<!-- q2 -->
<g id="node4" class="node">
<title>q2</title>
<ellipse fill="lightcoral" stroke="black" cx="369" cy="-24.33" rx="20.33" ry="20.33"/>
<ellipse fill="none" stroke="black" cx="369" cy="-24.33" rx="24.33" ry="24.33"/>
<text xml:space="preserve" text-anchor="middle" x="369" y="-20.03" font-family="Times,serif" font-size="14.00">q₂</text>
</g>
<!-- q1&#45;&gt;q2 -->
<g id="edge5" class="edge">
<title>q1&#45;&gt;q2</title>
<path fill="none" stroke="black" d="M245.39,-24.33C268.02,-24.33 305.5,-24.33 333.07,-24.33"/>
<polygon fill="black" stroke="black" points="333.07,-27.83 343.07,-24.33 333.07,-20.83 333.07,-27.83"/>
<text xml:space="preserve" text-anchor="middle" x="294.79" y="-29.03" font-family="Times,serif" font-size="14.00">ε, Z₀ → Z₀</text>
</g>
</g>
</svg>
