<?xml version="1.0" encoding="UTF-8" standalone="no"?>
<!DOCTYPE svg PUBLIC "-//W3C//DTD SVG 1.1//EN"
 "http://www.w3.org/Graphics/SVG/1.1/DTD/svg11.dtd">
<!-- Generated by graphviz version 14.0.2 (20251019.1705)
 -->
<!-- Title: palindrome Pages: 1 -->
<svg width="672pt" height="159pt"
 viewBox="0.00 0.00 672.00 159.00" xmlns="http://www.w3.org/2000/svg" xmlns:xlink="http://www.w3.org/1999/xlink">
<g id="graph0" class="graph" transform="scale(1 1) rotate(0) translate(4 154.96)">
<title>palindrome</title>
<polygon fill="white" stroke="none" points="-4,4 -4,-154.96 668.39,-154.96 668.39,4 -4,4"/>
<!-- qi -->
<g id="node1" class="node">
<title>qi</title>
<ellipse fill="black" stroke="black" cx="1.8" cy="-50.03" rx="1.8" ry="1.8"/>
</g>
<!-- q0 -->
<g id="node2" class="node">
<title>q0</title>
<ellipse fill="lightgreen" stroke="black" cx="89.04" cy="-50.03" rx="48.44" ry="48.44"/>
<text xml:space="preserve" text-anchor="middle" x="89.04" y="-53.98" font-family="Times,serif" font-size="14.00">q₀</text>
<text xml:space="preserve" text-anchor="middle" x="89.04" y="-35.98" font-family="Times,serif" font-size="14.00">(Push a&#39;s)</text>
</g>
<!-- qi&#45;&gt;q0 -->
<g id="edge1" class="edge">
<title>qi&#45;&gt;q0</title>
<path fill="none" stroke="black" d="M4,-50.03C7.32,-50.03 17.12,-50.03 28.91,-50.03"/>
<polygon fill="black" stroke="black" points="28.66,-53.53 38.66,-50.03 28.66,-46.53 28.66,-53.53"/>
</g>
<!-- q0&#45;&gt;q0 -->
<g id="edge2" class="edge">
<title>q0&#45;&gt;q0</title>
<path fill="none" stroke="black" d="M76.73,-97.2C77.75,-108.29 81.85,-116.46 89.04,-116.46 93.53,-116.46 96.82,-113.27 98.9,-108.17"/>
<polygon fill="black" stroke="black" points="102.25,-109.2 101.01,-98.68 95.42,-107.68 102.25,-109.2"/>
<text xml:space="preserve" text-anchor="middle" x="89.04" y="-137.66" font-family="Times,serif" font-size="14.00">a, a → aa</text>
<text xml:space="preserve" text-anchor="middle" x="89.04" y="-121.16" font-family="Times,serif" font-size="14.00">a, Z₀ → aZ₀</text>
</g>
<!-- q1 -->
<g id="node3" class="node">
<title>q1</title>
<ellipse fill="lightyellow" stroke="black" cx="293.25" cy="-50.03" rx="50.03" ry="50.03"/>
<text xml:space="preserve" text-anchor="middle" x="293.25" y="-53.98" font-family="Times,serif" font-size="14.00">q₁</text>
<text xml:space="preserve" text-anchor="middle" x="293.25" y="-35.98" font-family="Times,serif" font-size="14.00">(Read b&#39;s)</text>
</g>
<!-- q0&#45;&gt;q1 -->
<g id="edge3" class="edge">
<title>q0&#45;&gt;q1</title>
<path fill="none" stroke="black" d="M137.96,-50.03C166.02,-50.03 201.73,-50.03 231.73,-50.03"/>
<polygon fill="black" stroke="black" points="231.4,-53.53 241.4,-50.03 231.4,-46.53 231.4,-53.53"/>
<text xml:space="preserve" text-anchor="middle" x="190.35" y="-69.73" font-family="Times,serif" font-size="14.00">b, a → a</text>
<text xml:space="preserve" text-anchor="middle" x="190.35" y="-53.23" font-family="Times,serif" font-size="14.00">ε (transition)</text>
</g>
<!-- q1&#45;&gt;q1 -->
<g id="edge4" class="edge">
<title>q1&#45;&gt;q1</title>
<path fill="none" stroke="black" d="M276.3,-97.4C277.49,-109.22 283.14,-118.06 293.25,-118.06 299.89,-118.06 304.6,-114.25 307.4,-108.29"/>
<polygon fill="black" stroke="black" points="310.72,-109.42 309.82,-98.86 303.94,-107.67 310.72,-109.42"/>
<text xml:space="preserve" text-anchor="middle" x="293.25" y="-121.26" font-family="Times,serif" font-size="14.00">b, a → a</text>
</g>
<!-- q2 -->
<g id="node4" class="node">
<title>q2</title>
<ellipse fill="lightblue" stroke="black" cx="471.25" cy="-50.03" rx="44.72" ry="44.72"/>
<text xml:space="preserve" text-anchor="middle" x="471.25" y="-53.98" font-family="Times,serif" font-size="14.00">q₂</text>
<text xml:space="preserve" text-anchor="middle" x="471.25" y="-35.98" font-family="Times,serif" font-size="14.00">(Pop a&#39;s)</text>
</g>
<!-- q1&#45;&gt;q2 -->
<g id="edge5" class="edge">
<title>q1&#45;&gt;q2</title>
<path fill="none" stroke="black" d="M343.75,-50.03C365.93,-50.03 392.17,-50.03 414.99,-50.03"/>
<polygon fill="black" stroke="black" points="414.71,-53.53 424.71,-50.03 414.71,-46.53 414.71,-53.53"/>
<text xml:space="preserve" text-anchor="middle" x="384.9" y="-69.73" font-family="Times,serif" font-size="14.00">ε, a → a</text>
<text xml:space="preserve" text-anchor="middle" x="384.9" y="-53.23" font-family="Times,serif" font-size="14.00">(switch)</text>
</g>
<!-- q2&#45;&gt;q2 -->
<g id="edge6" class="edge">
<title>q2&#45;&gt;q2</title>
<path fill="none" stroke="black" d="M455.16,-92.24C455.94,-103.87 461.3,-112.75 471.25,-112.75 477.63,-112.75 482.12,-109.11 484.73,-103.43"/>
<polygon fill="black" stroke="black" points="488.13,-104.25 487,-93.72 481.32,-102.66 488.13,-104.25"/>
<text xml:space="preserve" text-anchor="middle" x="471.25" y="-115.95" font-family="Times,serif" font-size="14.00">a, a → ε</text>
</g>
<!-- q3 -->
<g id="node5" class="node">
<title>q3</title>
<ellipse fill="lightcoral" stroke="black" cx="640.06" cy="-50.03" rx="20.33" ry="20.33"/>
<ellipse fill="none" stroke="black" cx="640.06" cy="-50.03" rx="24.33" ry="24.33"/>
<text xml:space="preserve" text-anchor="middle" x="640.06" y="-45.73" font-family="Times,serif" font-size="14.00">q₃</text>
</g>
<!-- q2&#45;&gt;q3 -->
<g id="edge7" class="edge">
<title>q2&#45;&gt;q3</title>
<path fill="none" stroke="black" d="M516.08,-50.03C543.58,-50.03 578.55,-50.03 604.16,-50.03"/>
<polygon fill="black" stroke="black" points="604.05,-53.53 614.05,-50.03 604.05,-46.53 604.05,-53.53"/>
<text xml:space="preserve" text-anchor="middle" x="565.85" y="-54.73" font-family="Times,serif" font-size="14.00">ε, Z₀ → Z₀</text>
</g>
</g>
</svg>
